<svg width="204" height="208" viewBox="0 0 204 208" fill="none" xmlns="http://www.w3.org/2000/svg">
<path d="M158 107C158 137.928 132.928 163 102 163C71.0721 163 46 137.928 46 107C46 76.0721 71.0721 51 102 51C132.928 51 158 76.0721 158 107Z" fill="#141414" fill-opacity="0.01" stroke="white" stroke-width="18"/>
<path d="M102 11.7275L119.855 79.201L120.48 81.5646L122.921 81.429L192.61 77.5592L133.956 115.39L131.901 116.715L132.784 118.995L158 184.077L103.895 139.984L102 138.44L100.105 139.984L46.0002 184.077L71.2156 118.995L72.0988 116.715L70.0443 115.39L11.3904 77.5592L81.079 81.429L83.5201 81.5646L84.1455 79.201L102 11.7275Z" fill="white" stroke="#141414" stroke-width="6"/>
<path d="M54 196H50V192H54V196ZM64 204C64 204.906 63.9531 205.547 63.8594 205.922C63.6979 206.578 63.3516 207.073 62.8203 207.406C62.1901 207.802 61.25 208 60 208H54C52.75 208 51.8125 207.805 51.1875 207.414C50.6615 207.086 50.3151 206.591 50.1484 205.93C50.0495 205.534 50 204.891 50 204V198H54V204H60V192H64V204ZM69.8203 206C69.8203 206.552 69.625 207.023 69.2344 207.414C68.8438 207.805 68.3724 208 67.8203 208C67.2682 208 66.7969 207.805 66.4062 207.414C66.0156 207.023 65.8203 206.552 65.8203 206C65.8203 205.448 66.0156 204.977 66.4062 204.586C66.7969 204.195 67.2682 204 67.8203 204C68.3724 204 68.8438 204.195 69.2344 204.586C69.625 204.977 69.8203 205.448 69.8203 206ZM85.8164 196H71.8164C71.8164 194.854 72.0977 193.937 72.6602 193.25C73.3424 192.417 74.3945 192 75.8164 192H81.8164C83.0664 192 84.0039 192.195 84.6289 192.586C85.1549 192.914 85.5013 193.409 85.668 194.07C85.7669 194.466 85.8164 195.109 85.8164 196ZM85.8164 204C85.8164 204.906 85.7695 205.547 85.6758 205.922C85.5143 206.578 85.168 207.073 84.6367 207.406C84.0065 207.802 83.0664 208 81.8164 208H75.8164C74.5664 208 73.6289 207.805 73.0039 207.414C72.4779 207.086 72.1315 206.591 71.9648 205.93C71.8659 205.534 71.8164 204.891 71.8164 204H81.8164V202H75.8164C74.5664 202 73.6289 201.805 73.0039 201.414C72.4779 201.086 72.1315 200.591 71.9648 199.93C71.8659 199.534 71.8164 198.891 71.8164 198H81.8164C83.0664 198 84.0039 198.195 84.6289 198.586C85.1549 198.914 85.5013 199.409 85.668 200.07C85.7669 200.466 85.8164 201.109 85.8164 202V204ZM91.8125 206C91.8125 206.552 91.6172 207.023 91.2266 207.414C90.8359 207.805 90.3646 208 89.8125 208C89.2604 208 88.7891 207.805 88.3984 207.414C88.0078 207.023 87.8125 206.552 87.8125 206C87.8125 205.448 88.0078 204.977 88.3984 204.586C88.7891 204.195 89.2604 204 89.8125 204C90.3646 204 90.8359 204.195 91.2266 204.586C91.6172 204.977 91.8125 205.448 91.8125 206ZM107.809 196H93.8086C93.8086 194.854 94.0898 193.937 94.6523 193.25C95.3346 192.417 96.3867 192 97.8086 192H103.809C105.059 192 105.996 192.195 106.621 192.586C107.147 192.914 107.493 193.409 107.66 194.07C107.759 194.466 107.809 195.109 107.809 196ZM107.809 204C107.809 204.906 107.762 205.547 107.668 205.922C107.507 206.578 107.16 207.073 106.629 207.406C105.999 207.802 105.059 208 103.809 208H97.8086C96.5586 208 95.6211 207.805 94.9961 207.414C94.4701 207.086 94.1237 206.591 93.957 205.93C93.8581 205.534 93.8086 204.891 93.8086 204H103.809V202H97.8086C96.5586 202 95.6211 201.805 94.9961 201.414C94.4701 201.086 94.1237 200.591 93.957 199.93C93.8581 199.534 93.8086 198.891 93.8086 198H103.809C105.059 198 105.996 198.195 106.621 198.586C107.147 198.914 107.493 199.409 107.66 200.07C107.759 200.466 107.809 201.109 107.809 202V204ZM113.805 206C113.805 206.552 113.609 207.023 113.219 207.414C112.828 207.805 112.357 208 111.805 208C111.253 208 110.781 207.805 110.391 207.414C110 207.023 109.805 206.552 109.805 206C109.805 205.448 110 204.977 110.391 204.586C110.781 204.195 111.253 204 111.805 204C112.357 204 112.828 204.195 113.219 204.586C113.609 204.977 113.805 205.448 113.805 206ZM129.801 196H124.801V208H120.801L120.785 196H115.801V192H129.801V196ZM135.797 206C135.797 206.552 135.602 207.023 135.211 207.414C134.82 207.805 134.349 208 133.797 208C133.245 208 132.773 207.805 132.383 207.414C131.992 207.023 131.797 206.552 131.797 206C131.797 205.448 131.992 204.977 132.383 204.586C132.773 204.195 133.245 204 133.797 204C134.349 204 134.82 204.195 135.211 204.586C135.602 204.977 135.797 205.448 135.797 206ZM151.793 196H137.793V192H151.793V196ZM147.793 202H141.793V208H137.793V198H147.793V202Z" fill="white"/>
</svg>

